<?xml version="1.0" encoding="utf-8"?>
<svg xmlns="http://www.w3.org/2000/svg" viewBox="0 0 1024 1024" width="1024px" height="1024px" preserveAspectRatio="none">
  <path d="M 337.867 807.476 C 306.752 813.974 281.058 780.082 291.624 746.471 C 294.341 737.813 299.28 730.264 305.818 724.78 C 310.379 720.955 309.551 713.004 304.335 710.463 C 302.113 709.386 299.557 709.599 297.502 711.045 L 28.05 900.063 C -10.826 927.332 -8.926 991.799 31.472 1016.1 C 45.789 1024.71 62.61 1026.36 78.037 1020.66 L 629.312 816.747 C 651.778 808.427 657.823 775.818 640.195 758.058 C 633.112 750.916 623.49 747.873 614.141 749.82 L 337.867 807.476 Z M 477.479 413.533 C 488.045 379.922 526.938 371.803 547.488 398.922 C 552.776 405.902 556.104 414.491 557.054 423.605 C 557.737 429.966 564.276 433.102 568.82 429.252 C 570.737 427.631 571.831 425.058 571.765 422.36 L 561.226 64.894 C 559.698 13.323 509.206 -17.051 470.329 10.225 C 456.552 19.89 446.88 35.484 443.552 53.382 L 324.623 693.316 C 319.762 719.396 341.778 741.619 364.25 733.325 C 373.305 729.982 380.471 722.094 383.649 711.971 L 477.479 413.533 Z M 710.426 746.746 C 730.976 773.859 717.776 815.877 686.66 822.381 C 678.65 824.053 670.378 823.007 662.895 819.37 C 657.673 816.841 651.978 821.63 652.645 827.99 C 652.928 830.695 654.367 833.067 656.495 834.351 L 936.491 1002.8 C 976.884 1027.11 1025.48 993.026 1023.97 941.449 C 1023.43 923.163 1016.28 905.916 1004.18 893.715 L 571.826 457.685 C 554.215 439.9 526.122 450.267 521.261 476.347 C 519.3 486.858 521.783 497.8 527.977 505.963 L 710.426 746.746 Z" fill="black"/>
</svg>
