<?xml version="1.0" encoding="UTF-8" standalone="no"?>
<svg
   shape-rendering="geometricPrecision"
   text-rendering="geometricPrecision"
   image-rendering="optimizeQuality"
   fill-rule="evenodd"
   clip-rule="evenodd"
   viewBox="0 0 512 489.435"
   version="1.1"
   id="svg1"
   xmlns="http://www.w3.org/2000/svg"
   xmlns:svg="http://www.w3.org/2000/svg">
  <path
     d="M278.295 228.82l-.138-64.119c-27.903-16.121-19.014-78.237 8.909-77.894 33.94.391 37.959 69.995 8.773 77.642l2.158 64.691c.412 15.156-19.679 16.558-19.702-.32zm-168.771 88.364c6.788 0 12.29 5.502 12.29 12.29 0 6.788-5.502 12.291-12.29 12.291H71.37L33.265 464.854h444.623l-41.373-123.089H407.93c-6.788 0-12.291-5.503-12.291-12.291s5.503-12.29 12.291-12.29h46.171L512 489.435H0l53.325-172.251h56.199zm156.605 107.825c-3.121 2.276-7.359 2.59-10.837.357-37.51-23.86-69.043-52.541-93.797-83.672-34.164-42.861-55.707-90.406-63.065-136.169-7.494-46.427-.492-91.073 22.612-127.381 9.098-14.36 20.739-27.428 34.923-38.714C188.568 13.428 225.809-.263 262.873.004c35.726.268 70.961 13.601 101.423 41.39 10.706 9.723 19.715 20.872 27.074 32.96 24.843 40.898 30.196 93.083 19.269 145.981-17.047 82.829-71.772 160.521-144.51 204.674zM255.788 37.251c69.041 0 125.005 55.965 125.005 125.005 0 69.041-55.964 125.006-125.005 125.006s-125.006-55.965-125.006-125.006c0-69.04 55.965-125.005 125.006-125.005zM233.8 156.435c7.234-4.938 10.863-11.39 10.242-26.155V92.318c-.07-5.305-9.693-5.946-10.173 0l-.368 30.795c-.023 5.765-8.682 5.949-8.657 0l.367-31.851c-.114-5.695-9.301-6.269-9.415 0 0 8.842-.367 23.012-.367 31.851.458 5.582-7.579 6.316-7.372 0l.367-31.645c-.206-4.292-4.936-5.831-8.15-3.811-3.424 2.182-2.733 6.568-2.871 10.266l-1.195 36.327c.184 10.564 2.963 19.153 11.227 22.804 1.266.553 3.01.986 5.03 1.285l-2.844 73.144c-.162 5.26 4.131 9.555 9.16 9.555h1.149c5.671 0 10.471-4.846 10.312-10.747l-2.505-71.972c2.641-.415 4.823-1.036 6.063-1.884z"
     id="path1" />
</svg>
